# xmcd
#
# Track frame offsets:
#	150
#	26260
#	42163
#	57349
#	82793
#	107692
#	125367
#	140952
#	165303
#	179362
#
# Disc length: 2617 seconds
#
# Revision: 3
# Processed by: cddbd v1.5.2PL0 Copyright (c) Steve Scherf et al.
# Submitted via: EasyCDDAExtractor 8.2.3.1
#
DISCID=790a370a
DTITLE=Peter Green - Whatcha Gonna Do?
DYEAR=1981
DGENRE=Blues
TTITLE0=Got To See Her Tonight
TTITLE1=Promised Land
TTITLE2=Bullet In The Sky
TTITLE3=Give Me Back My Freedom
TTITLE4=Last Train To San Antone
TTITLE5=To Breave Your Heart
TTITLE6=Bizzy Lizzy
TTITLE7=Lost My Love
TTITLE8=Like A Hot Tomato
TTITLE9=Trying To Hit My Head Against The Wall
EXTD=
EXTT0=
EXTT1=
EXTT2=
EXTT3=
EXTT4=
EXTT5=
EXTT6=
EXTT7=
EXTT8=
EXTT9=
PLAYORDER=
